<svg width="14" height="21" viewBox="0 0 14 21" fill="none" xmlns="http://www.w3.org/2000/svg">
<path fill-rule="evenodd" clip-rule="evenodd" d="M6.33205 1.55481C6.6384 1.09528 6.51423 0.474408 6.0547 0.168056C5.59517 -0.138296 4.9743 -0.0141227 4.66795 0.445406L4.25432 1.06585L3.1 0.200106C2.65817 -0.131265 2.03137 -0.0417215 1.7 0.400106C1.36863 0.841934 1.45817 1.46874 1.9 1.80011L3.84315 3.25747L6 5.41432V8.00011H1H0V9.00011V17.0001C0 19.2092 1.79086 21.0001 4 21.0001H10C12.2091 21.0001 14 19.2092 14 17.0001V9.00011V8.00011H13H8V5.96396C10.0663 5.7532 11.9475 4.63162 13.1132 2.88301L13.3321 2.55481C13.5508 2.22666 13.5563 1.80058 13.346 1.46693C13.1357 1.13328 12.749 0.954383 12.3586 1.01016L8.85858 1.51016C8.60673 1.54614 8.37806 1.67675 8.21913 1.87541L6.91708 3.50297L5.7868 2.37269L6.33205 1.55481ZM6 10.0001V13.5001C6 14.0524 6.44772 14.5001 7 14.5001C7.55228 14.5001 8 14.0524 8 13.5001V10.0001H12V17.0001C12 18.1047 11.1046 19.0001 10 19.0001H4C2.89543 19.0001 2 18.1047 2 17.0001V10.0001H6ZM9.62458 3.42103C9.57956 3.44482 9.53419 3.46791 9.48846 3.49031L9.53347 3.43405L9.62458 3.42103Z" fill="black"/>
</svg>
