<svg width="181" height="48" viewBox="0 0 181 48" fill="none" xmlns="http://www.w3.org/2000/svg">
<path d="M17.4545 0C17.4545 0 34.0364 21.8182 34.9091 27.4909C34.2393 27.4909 33.5151 27.4909 32.763 27.4909C26.1175 27.4909 20.1043 23.5489 17.4545 17.4545C14.8048 23.5489 8.78953 27.4909 2.14407 27.4909C1.27949 27.4909 0.535206 27.4909 0 27.4909C0.872727 21.8182 17.4545 0 17.4545 0Z" fill="#405AE1"/>
<path d="M34.6789 32.2918C33.3215 41.2014 26.1266 48 17.4546 48C8.78255 48 1.58763 41.2014 0.230293 32.2918C0.288703 32.2912 0.347182 32.2909 0.405729 32.2909C8.75488 32.2909 15.7349 38.5926 17.4544 47.0129C19.1738 38.5926 26.1538 32.2909 34.503 32.2909C34.5617 32.2909 34.6203 32.2912 34.6789 32.2918Z" fill="#18DF68"/>
<path fill-rule="evenodd" clip-rule="evenodd" d="M161.221 26.1008C162.843 26.7749 164.616 27.1119 166.538 27.1119C168.486 27.1119 170.258 26.7749 171.856 26.1008C171.998 26.0418 172.138 25.9807 172.277 25.9175C170.863 24.6461 169.663 23.153 168.726 21.498C168.04 21.6956 167.311 21.7944 166.538 21.7944C165.44 21.7944 164.429 21.5946 163.505 21.1952C162.581 20.7958 161.77 20.2216 161.071 19.4726C160.372 18.7237 159.835 17.8499 159.461 16.8513C159.111 15.8527 158.936 14.7543 158.936 13.5559C158.936 12.3576 159.111 11.2592 159.461 10.2606C159.835 9.26198 160.372 8.40069 161.071 7.67671C161.77 6.92776 162.581 6.35357 163.505 5.95413C164.429 5.52973 165.44 5.31753 166.538 5.31753C167.637 5.31753 168.648 5.52973 169.572 5.95413C170.52 6.35357 171.332 6.92776 172.006 7.67671C172.68 8.40069 173.204 9.26198 173.578 10.2606C173.978 11.2592 174.178 12.3576 174.178 13.5559C174.178 14.7543 173.978 15.8527 173.578 16.8513C173.209 17.8369 172.693 18.7008 172.032 19.4432C173.465 20.6346 174.732 22.0124 175.8 23.5392C175.897 23.4461 175.993 23.3513 176.087 23.2548C177.311 22.0315 178.247 20.596 178.896 18.9484C179.545 17.3007 179.87 15.5032 179.87 13.5559C179.87 11.6087 179.545 9.81121 178.896 8.16353C178.247 6.51584 177.311 5.08036 176.087 3.85708C174.889 2.6338 173.479 1.68513 171.856 1.01108C170.258 0.337026 168.486 0 166.538 0C164.616 0 162.843 0.337026 161.221 1.01108C159.598 1.68513 158.175 2.6338 156.952 3.85708C155.753 5.08036 154.83 6.51584 154.181 8.16353C153.532 9.78624 153.207 11.5837 153.207 13.5559C153.207 15.5032 153.532 17.3132 154.181 18.9858C154.83 20.6335 155.753 22.069 156.952 23.2923C158.175 24.4906 159.598 25.4268 161.221 26.1008Z" fill="#405AE1"/>
<path d="M178.762 29.7332L178.509 29.5853C173.265 26.5207 169.151 21.8442 166.779 16.2522L167.283 16.5766C172.276 19.7896 176.256 24.3513 178.762 29.7332Z" fill="#18DF68"/>
<path d="M96.8008 26.7374V0.524292H101.931L111.48 16.0649L108.11 16.0275L117.771 0.524292H122.677V26.7374H117.172V17.7501C117.172 15.5032 117.222 13.4811 117.322 11.6836C117.447 9.88613 117.646 8.10114 117.921 6.32863L118.595 8.08866L110.918 19.9969H108.447L100.92 8.16355L101.557 6.32863C101.831 8.00128 102.018 9.72386 102.118 11.4964C102.243 13.2439 102.306 15.3285 102.306 17.7501V26.7374H96.8008Z" fill="#405AE1"/>
<path d="M74.0898 26.7374V0.524292H79.7069V21.6821H91.5778V26.7374H74.0898Z" fill="#405AE1"/>
<path fill-rule="evenodd" clip-rule="evenodd" d="M55.1688 0.524292L44.9082 26.7374H50.4504C51.2339 24.8513 52.2197 22.4593 53.2206 19.9969C54.7194 21.1203 56.2173 21.4948 57.7152 21.4948C59.2131 21.4948 60.3365 21.1203 61.7172 19.9969C62.8684 22.6976 63.9572 25.2136 64.643 26.7374H70.4099L60.1867 0.524292H55.1688ZM57.3409 8.38824L55.2467 13.5073C54.6377 14.9959 55.7326 16.6267 57.3409 16.6267C58.9492 16.6267 60.044 14.9959 59.435 13.5073L57.3409 8.38824Z" fill="#405AE1"/>
<path fill-rule="evenodd" clip-rule="evenodd" d="M136.804 0.524292L126.543 26.7374H132.085C132.869 24.8513 133.854 22.4593 134.855 19.9969C136.354 21.1203 137.852 21.4948 139.35 21.4948C140.848 21.4948 141.971 21.1203 143.352 19.9969C144.503 22.6976 145.592 25.2136 146.278 26.7374H152.045L141.821 0.524292H136.804ZM138.975 8.38824L136.881 13.5073C136.272 14.9959 137.367 16.6267 138.975 16.6267C140.584 16.6267 141.679 14.9959 141.07 13.5073L138.975 8.38824Z" fill="#405AE1"/>
<path d="M175.59 35.527C177.178 35.527 178.337 35.8384 179.066 36.4612C179.801 37.0784 180.169 37.9649 180.169 39.1207C180.169 39.6426 180.082 40.1391 179.908 40.6104C179.739 41.0761 179.464 41.4885 179.083 41.8476C178.701 42.2011 178.199 42.4817 177.576 42.6893C176.959 42.8913 176.202 42.9923 175.304 42.9923H173.806V47.8316H172.375V35.527H175.59ZM175.455 36.7473H173.806V41.7635H175.144C175.929 41.7635 176.583 41.6793 177.105 41.511C177.632 41.3427 178.028 41.0705 178.292 40.6946C178.555 40.3131 178.687 39.8081 178.687 39.1797C178.687 38.3605 178.426 37.7517 177.905 37.3533C177.383 36.9493 176.566 36.7473 175.455 36.7473Z" fill="black"/>
<path d="M160.094 47.8316V35.527H161.525V46.5524H166.987V47.8316H160.094Z" fill="black"/>
<path d="M147.814 47.8316V35.527H149.245V46.5524H154.707V47.8316H147.814Z" fill="black"/>
<path d="M133.403 47.8316H131.973V42.0328H125.509V47.8316H124.078V35.527H125.509V40.7703H131.973V35.527H133.403V47.8316Z" fill="black"/>
<path d="M115.206 36.6127C114.527 36.6127 113.915 36.7305 113.371 36.9662C112.832 37.1962 112.372 37.5329 111.991 37.9761C111.615 38.4138 111.326 38.944 111.124 39.5668C110.922 40.1896 110.821 40.891 110.821 41.6709C110.821 42.7033 110.981 43.601 111.301 44.3641C111.626 45.1216 112.109 45.7079 112.748 46.1231C113.394 46.5383 114.199 46.7459 115.164 46.7459C115.714 46.7459 116.23 46.701 116.712 46.6113C117.201 46.5159 117.675 46.3981 118.135 46.2578V47.5034C117.686 47.6717 117.215 47.7952 116.721 47.8737C116.227 47.9579 115.641 48 114.962 48C113.711 48 112.664 47.7419 111.823 47.2257C110.986 46.7038 110.358 45.9688 109.937 45.0206C109.522 44.0723 109.314 42.953 109.314 41.6625C109.314 40.7311 109.444 39.881 109.702 39.1123C109.965 38.338 110.347 37.6703 110.846 37.1092C111.351 36.5481 111.968 36.1161 112.698 35.8131C113.433 35.5045 114.274 35.3502 115.223 35.3502C115.846 35.3502 116.446 35.4119 117.024 35.5354C117.602 35.6588 118.124 35.8356 118.589 36.0656L118.017 37.2776C117.624 37.098 117.192 36.9437 116.721 36.8147C116.255 36.68 115.75 36.6127 115.206 36.6127Z" fill="black"/>
<path d="M103.945 47.8316H97.0938V35.527H103.945V36.7894H98.5245V40.7703H103.633V42.016H98.5245V46.5692H103.945V47.8316Z" fill="black"/>
<path d="M88.1037 47.8316H86.6645V36.7894H82.793V35.527H91.9583V36.7894H88.1037V47.8316Z" fill="black"/>
<path d="M78.307 41.6625C78.307 42.6107 78.1864 43.4748 77.9451 44.2547C77.7039 45.029 77.3448 45.6967 76.8678 46.2578C76.3965 46.8132 75.8102 47.2425 75.1088 47.5455C74.4075 47.8485 73.5939 47.9999 72.6681 47.9999C71.7142 47.9999 70.881 47.8485 70.1684 47.5455C69.4615 47.2425 68.8723 46.8104 68.401 46.2494C67.9353 45.6883 67.5846 45.0178 67.349 44.2378C67.1189 43.4579 67.0039 42.5939 67.0039 41.6456C67.0039 40.3888 67.2115 39.2862 67.6267 38.338C68.0419 37.3898 68.6703 36.6519 69.512 36.1245C70.3592 35.5971 71.4197 35.3334 72.6933 35.3334C73.9109 35.3334 74.9349 35.5943 75.7653 36.1161C76.6013 36.6379 77.2325 37.3729 77.659 38.3212C78.091 39.2638 78.307 40.3776 78.307 41.6625ZM68.5104 41.6625C68.5104 42.7061 68.6591 43.6094 68.9565 44.3725C69.2539 45.1356 69.7084 45.7247 70.3199 46.1399C70.9371 46.5551 71.7199 46.7627 72.6681 46.7627C73.6219 46.7627 74.4019 46.5551 75.0078 46.1399C75.6194 45.7247 76.0711 45.1356 76.3629 44.3725C76.6546 43.6094 76.8005 42.7061 76.8005 41.6625C76.8005 40.0746 76.4667 38.8346 75.799 37.9424C75.1369 37.0447 74.1017 36.5958 72.6933 36.5958C71.7395 36.5958 70.954 36.8006 70.3368 37.2102C69.7196 37.6198 69.2595 38.2033 68.9565 38.9608C68.6591 39.7127 68.5104 40.6132 68.5104 41.6625Z" fill="black"/>
<path d="M59.5449 47.8316V35.527H60.9757V47.8316H59.5449Z" fill="black"/>
<path d="M45.127 35.527H48.6113C50.1487 35.527 51.3045 35.757 52.0788 36.2171C52.8531 36.6772 53.2403 37.4599 53.2403 38.5653C53.2403 39.0422 53.1477 39.4714 52.9626 39.853C52.783 40.2289 52.5193 40.5403 52.1714 40.7872C51.8235 41.0341 51.3943 41.2052 50.8837 41.3006V41.3847C51.4224 41.4689 51.8993 41.6232 52.3145 41.8476C52.7297 42.0721 53.0551 42.3863 53.2908 42.7903C53.5264 43.1943 53.6443 43.7076 53.6443 44.3305C53.6443 45.0879 53.4675 45.7276 53.114 46.2494C52.7662 46.7712 52.2724 47.1668 51.6328 47.4361C50.9931 47.6998 50.2357 47.8316 49.3604 47.8316H45.127V35.527ZM46.5577 40.804H48.9143C49.986 40.804 50.7266 40.6273 51.1362 40.2738C51.5514 39.9203 51.759 39.4041 51.759 38.7252C51.759 38.0238 51.5121 37.5188 51.0184 37.2102C50.5302 36.9016 49.7503 36.7473 48.6786 36.7473H46.5577V40.804ZM46.5577 42.0076V46.6113H49.1163C50.2104 46.6113 50.9847 46.3981 51.4392 45.9716C51.8937 45.5396 52.1209 44.9589 52.1209 44.2295C52.1209 43.7638 52.0171 43.3654 51.8095 43.0343C51.6075 42.7033 51.2765 42.4508 50.8164 42.2769C50.3619 42.0973 49.7531 42.0076 48.99 42.0076H46.5577Z" fill="black"/>
</svg>
